# xmcd
#
# Track frame offsets:
#	150
#	22532
#	38496
#	52165
#
# Disc length: 892 seconds
#
# Revision: 0
# Processed by: cddbd v1.5.2PL0 Copyright (c) Steve Scherf et al.
# Submitted via: dBpowerAMP V4.0
#
DISCID=22037a04
DTITLE=Kirsten Jones - Kirsten Jones
DYEAR=2007
DGENRE=Country
TTITLE0=Bittersweet Grand Canyon
TTITLE1=Mad Mile 
TTITLE2=I will Love you Now
TTITLE3=Thoughtful Man
EXTD=
EXTT0=
EXTT1=
EXTT2=
EXTT3=
PLAYORDER=
